<svg xmlns="http://www.w3.org/2000/svg" x="0px" y="0px"
width="20" height="20"
viewBox="0 0 192 192"
style=" fill:#F37335;"><g fill="none" fill-rule="nonzero" stroke="none" stroke-width="1" stroke-linecap="butt" stroke-linejoin="miter" stroke-miterlimit="10" stroke-dasharray="" stroke-dashoffset="0" font-family="none" font-weight="none" font-size="none" text-anchor="none" style="mix-blend-mode: normal"><path d="M0,192v-192h192v192z" fill="none"></path><g fill="#F37335"><path d="M108.8,19.2h12.8c2.4704,0 4.7232,1.4272 5.7856,3.6608c1.0624,2.2336 0.736,4.8768 -0.832,6.7968l-54.2848,66.3424l54.2848,66.3488c1.568,1.9136 1.888,4.5568 0.832,6.7968c-1.056,2.24 -3.3152,3.6544 -5.7856,3.6544h-12.8c-1.92,0 -3.7376,-0.864 -4.9536,-2.3488l-57.6,-70.4c-1.9264,-2.3616 -1.9264,-5.7472 0,-8.1088l57.6,-70.4c1.216,-1.4784 3.0336,-2.3424 4.9536,-2.3424z"></path></g></g></svg>